<?xml version="1.0" standalone="no"?>
<!DOCTYPE svg PUBLIC "-//W3C//DTD SVG 20010904//EN"
 "http://www.w3.org/TR/2001/REC-SVG-20010904/DTD/svg10.dtd">
<svg version="1.0" xmlns="http://www.w3.org/2000/svg"
 width="721.000000pt" height="399.000000pt" viewBox="0 0 721.000000 399.000000"
 preserveAspectRatio="xMidYMid meet">

<g transform="translate(0.000000,399.000000) scale(0.100000,-0.100000)"
fill="#000000" stroke="none">
<path d="M0 1995 l0 -1995 3605 0 3605 0 0 1995 0 1995 -3605 0 -3605 0 0
-1995z m2888 1200 c110 -22 190 -64 252 -132 183 -200 178 -507 -15 -830 -75
-126 -101 -152 -50 -49 163 327 192 597 83 769 -58 91 -160 160 -277 187 -81
19 -231 15 -351 -10 -134 -27 -260 -74 -438 -161 l-143 -71 46 -50 c57 -63
109 -151 137 -231 32 -89 32 -263 1 -362 -70 -221 -249 -381 -473 -421 -129
-23 -268 -7 -325 38 -34 27 -65 92 -65 138 0 83 188 426 362 660 l33 45 -64
-50 c-342 -266 -660 -644 -817 -970 -168 -350 -171 -585 -9 -734 65 -59 135
-87 243 -100 307 -34 733 104 1261 408 60 34 45 14 -42 -57 -438 -358 -1180
-536 -1521 -365 -69 34 -140 111 -167 181 -34 85 -32 269 4 405 66 249 202
520 394 786 9 12 8 31 -3 81 -18 85 -17 229 1 309 38 159 150 298 298 370 178
87 378 93 570 16 l68 -28 97 46 c345 161 680 228 910 182z m1930 -1377 l2
-458 -80 0 -80 0 0 460 0 461 78 -3 77 -3 3 -457z m322 2 l0 -460 -75 0 -75 0
0 460 0 460 75 0 75 0 0 -460z m-1720 290 l0 -110 165 0 165 0 0 -70 0 -70
-165 0 -165 0 0 -156 0 -156 29 -29 c24 -23 38 -29 75 -29 60 0 95 30 103 88
l6 42 73 0 74 0 0 -41 c0 -145 -103 -235 -265 -233 -112 2 -189 46 -229 134
-20 42 -21 65 -24 393 l-3 347 80 0 81 0 0 -110z m-1062 -327 l2 -423 -85 0
-85 0 0 418 c0 230 3 422 7 426 4 4 41 5 83 4 l75 -3 3 -422z m596 210 c65
-21 136 -91 161 -158 15 -41 19 -89 23 -262 l4 -213 -81 0 -81 0 0 198 c0 216
-6 245 -62 285 -41 31 -117 34 -171 8 -74 -36 -81 -61 -85 -293 l-4 -198 -75
0 -75 0 4 223 c5 248 8 264 76 339 79 88 223 116 366 71z m1382 -5 c119 -43
194 -151 202 -289 l5 -79 -262 0 c-143 0 -261 -4 -261 -9 0 -17 47 -76 77 -97
60 -40 166 -38 224 5 23 17 42 21 109 21 44 0 80 -3 80 -6 0 -17 -46 -77 -84
-111 -85 -75 -237 -100 -355 -57 -68 24 -144 92 -178 158 -38 74 -44 198 -13
280 66 173 266 254 456 184z m1397 6 c91 -32 174 -118 199 -208 6 -23 11 -68
12 -101 l1 -60 -257 -3 c-169 -1 -258 -6 -258 -13 0 -22 31 -68 58 -88 64 -45
180 -45 242 -1 25 18 42 20 111 18 l81 -3 -34 -50 c-37 -56 -109 -109 -171
-127 -23 -6 -76 -11 -117 -11 -143 2 -243 62 -302 181 -30 60 -33 75 -33 153
1 77 5 94 33 152 35 71 79 114 152 148 79 38 196 43 283 13z m504 -109 l76
-115 76 115 76 115 93 0 93 0 -30 -42 c-17 -24 -68 -95 -114 -158 l-84 -114
84 -116 c46 -63 100 -136 119 -162 l36 -48 -95 0 -94 0 -38 58 c-21 31 -58 86
-83 120 l-44 64 -81 -121 -80 -121 -88 0 c-49 0 -89 2 -89 5 0 3 50 74 111
159 61 85 112 157 113 159 0 3 -47 73 -106 155 -60 83 -108 153 -108 156 0 3
40 6 90 6 l90 0 77 -115z"/>
<path d="M4115 1856 c-34 -15 -85 -70 -85 -92 0 -12 30 -14 170 -14 140 0 170
2 170 14 0 23 -51 78 -87 92 -41 18 -129 17 -168 0z"/>
<path d="M5508 1850 c-31 -17 -78 -73 -78 -94 0 -3 79 -6 175 -6 96 0 175 3
175 6 0 22 -48 78 -81 94 -51 26 -141 26 -191 0z"/>
</g>
</svg>
